<svg width="25" height="18" viewBox="0 0 25 18" fill="none" xmlns="http://www.w3.org/2000/svg">
<path d="M24.4776 3.21432C24.1901 2.16454 23.3429 1.33778 22.2673 1.0572C20.3177 0.547363 12.5 0.547363 12.5 0.547363C12.5 0.547363 4.68232 0.547363 2.73266 1.0572C1.65706 1.33782 0.80992 2.16454 0.522399 3.21432C0 5.11709 0 9.08705 0 9.08705C0 9.08705 0 13.057 0.522399 14.9598C0.80992 16.0095 1.65706 16.8019 2.73266 17.0824C4.68232 17.5923 12.5 17.5923 12.5 17.5923C12.5 17.5923 20.3177 17.5923 22.2673 17.0824C23.3429 16.8019 24.1901 16.0095 24.4776 14.9598C25 13.057 25 9.08705 25 9.08705C25 9.08705 25 5.11709 24.4776 3.21432ZM9.94316 12.6915V5.48262L16.4772 9.08714L9.94316 12.6915Z" fill="white"/>
</svg>
